<?xml version="1.0" encoding="utf-8"?>
<!-- Generator: Adobe Illustrator 27.0.1, SVG Export Plug-In . SVG Version: 6.00 Build 0)  -->
<svg version="1.1" id="Calque_1" xmlns="http://www.w3.org/2000/svg" xmlns:xlink="http://www.w3.org/1999/xlink" x="0px" y="0px"
	 viewBox="0 0 226.62 160.53" style="enable-background:new 0 0 226.62 160.53;" xml:space="preserve">
<style type="text/css">
	.st0{fill:#FFFFFF;}
</style>
<g id="Groupe_6">
	<path id="Tracé_31" class="st0" d="M226.61,79.88l0.01-0.72c-16.82-0.93-33.38-4.51-49.09-10.59
		c-14.33-5.39-27.53-13.39-38.95-23.59C125.22,32.78,115.3,17.26,109.84,0l-1.38,0.45c13.09,40.51,44.53,60.15,68.6,69.49
		c12.12,4.64,24.75,7.86,37.62,9.58H0v1.45h214.99c-12.98,1.71-25.71,4.94-37.93,9.62c-24.07,9.34-55.51,28.98-68.6,69.49l1.38,0.45
		c5.46-17.26,15.38-32.78,28.75-44.98c11.41-10.2,24.62-18.2,38.95-23.59c15.71-6.08,32.27-9.65,49.09-10.59l-0.01-0.72V79.88z"/>
</g>
</svg>
