<?xml version="1.0" encoding="utf-8"?>
<!-- Generator: Adobe Illustrator 27.0.1, SVG Export Plug-In . SVG Version: 6.00 Build 0)  -->
<svg version="1.1" id="Calque_1" xmlns="http://www.w3.org/2000/svg" xmlns:xlink="http://www.w3.org/1999/xlink" x="0px" y="0px"
	 viewBox="0 0 185.45 16.87" style="enable-background:new 0 0 185.45 16.87;" xml:space="preserve">
<style type="text/css">
	.st0{fill:#FFFFFF;}
</style>
<g>
	<path class="st0" d="M0,0.02h7.98c1.47,0,2.65,0.34,3.54,1.01c0.89,0.68,1.33,1.7,1.33,3.06c0,0.83-0.2,1.54-0.61,2.13
		c-0.41,0.59-0.99,1.05-1.74,1.37v0.05c1.01,0.22,1.78,0.69,2.3,1.44c0.52,0.74,0.78,1.68,0.78,2.8c0,0.64-0.12,1.25-0.35,1.81
		c-0.23,0.56-0.59,1.04-1.08,1.45c-0.49,0.41-1.12,0.73-1.89,0.97c-0.77,0.24-1.68,0.36-2.74,0.36H0V0.02z M2.88,6.9h4.69
		c0.69,0,1.27-0.2,1.73-0.59s0.69-0.96,0.69-1.69c0-0.83-0.21-1.41-0.62-1.75C8.95,2.53,8.35,2.36,7.57,2.36H2.88V6.9z M2.88,14.1
		h5.09c0.87,0,1.55-0.23,2.04-0.68c0.48-0.45,0.72-1.09,0.72-1.92c0-0.81-0.24-1.44-0.72-1.88C9.51,9.19,8.84,8.97,7.96,8.97H2.88
		V14.1z"/>
	<path class="st0" d="M15.44,0.02h2.88v9.57c0,0.55,0.03,1.11,0.08,1.68c0.05,0.57,0.21,1.08,0.46,1.53
		c0.25,0.45,0.64,0.82,1.15,1.12c0.51,0.29,1.24,0.44,2.17,0.44c0.94,0,1.66-0.15,2.17-0.44c0.51-0.29,0.9-0.66,1.15-1.12
		c0.25-0.45,0.41-0.96,0.46-1.53c0.05-0.57,0.08-1.13,0.08-1.68V0.02h2.88v10.52c0,1.06-0.16,1.98-0.48,2.76
		c-0.32,0.78-0.78,1.44-1.37,1.97c-0.59,0.53-1.3,0.92-2.13,1.18c-0.83,0.26-1.75,0.39-2.76,0.39c-1.01,0-1.93-0.13-2.76-0.39
		c-0.83-0.26-1.54-0.66-2.13-1.18c-0.59-0.53-1.05-1.19-1.37-1.97c-0.32-0.78-0.48-1.7-0.48-2.76V0.02z"/>
	<path class="st0" d="M31.81,0.02h7.85c1.81,0,3.17,0.39,4.07,1.17c0.9,0.78,1.36,1.87,1.36,3.27c0,0.78-0.11,1.43-0.35,1.94
		c-0.23,0.51-0.5,0.93-0.81,1.24c-0.31,0.31-0.61,0.54-0.91,0.68s-0.52,0.23-0.66,0.28v0.05c0.25,0.03,0.51,0.11,0.79,0.23
		c0.28,0.12,0.55,0.32,0.79,0.59c0.25,0.27,0.45,0.62,0.61,1.05c0.16,0.43,0.24,0.97,0.24,1.61c0,0.97,0.07,1.84,0.22,2.63
		c0.15,0.79,0.37,1.35,0.68,1.69h-3.08c-0.21-0.35-0.34-0.74-0.38-1.17c-0.04-0.43-0.06-0.84-0.06-1.24c0-0.75-0.05-1.4-0.14-1.94
		c-0.09-0.54-0.26-1-0.51-1.36c-0.25-0.36-0.58-0.63-1-0.79c-0.42-0.17-0.96-0.25-1.62-0.25h-4.23v6.77h-2.88V0.02z M34.68,7.49
		h4.72c0.92,0,1.62-0.22,2.09-0.66c0.48-0.44,0.71-1.09,0.71-1.97c0-0.52-0.08-0.95-0.23-1.28c-0.15-0.33-0.36-0.59-0.63-0.77
		c-0.27-0.18-0.58-0.31-0.92-0.37c-0.35-0.06-0.7-0.09-1.07-0.09h-4.67V7.49z"/>
	<path class="st0" d="M47.43,0.02h11.83V2.5h-8.95v4.3h8.28v2.35h-8.28v4.81h9.11v2.48H47.43V0.02z"/>
	<path class="st0" d="M66.63,0.05h3.06l6.33,16.43h-3.08l-1.54-4.35h-6.56l-1.54,4.35h-2.97L66.63,0.05z M65.61,9.94h5.02
		l-2.46-7.06H68.1L65.61,9.94z"/>
	<path class="st0" d="M76.25,0.05h2.88v9.57c0,0.55,0.03,1.11,0.08,1.68c0.05,0.57,0.21,1.08,0.46,1.53
		c0.25,0.45,0.64,0.82,1.15,1.12c0.51,0.29,1.24,0.44,2.17,0.44c0.94,0,1.66-0.15,2.17-0.44c0.51-0.29,0.9-0.66,1.15-1.12
		c0.25-0.45,0.41-0.96,0.46-1.53c0.05-0.57,0.08-1.13,0.08-1.68V0.05h2.88v10.52c0,1.06-0.16,1.98-0.48,2.76
		c-0.32,0.78-0.78,1.44-1.37,1.97c-0.59,0.53-1.3,0.92-2.13,1.18c-0.83,0.26-1.75,0.39-2.76,0.39s-1.93-0.13-2.76-0.39
		c-0.83-0.26-1.54-0.66-2.13-1.18c-0.59-0.53-1.05-1.19-1.37-1.97s-0.48-1.7-0.48-2.76V0.05z"/>
	<path class="st0" d="M92.61,0.03h2.88v6.53h7.48V0.03h2.88v16.43h-2.88V9.05h-7.48v7.41h-2.88V0.03z"/>
	<path class="st0" d="M108.72,0.03h11.83v2.49h-8.95v4.3h8.28v2.35h-8.28v4.81h9.11v2.48h-11.99V0.03z"/>
	<path class="st0" d="M123.22,0.03h2.88v13.94h8.35v2.48h-11.23V0.03z"/>
	<path class="st0" d="M136.43,0.03h2.88v13.94h8.35v2.48h-11.23V0.03z"/>
	<path class="st0" d="M149.64,0.03h11.83v2.49h-8.95v4.3h8.28v2.35h-8.28v4.81h9.11v2.48h-11.99V0.03z"/>
	<path class="st0" d="M164.35,0.06h7.85c1.81,0,3.17,0.39,4.07,1.17c0.91,0.78,1.36,1.87,1.36,3.27c0,0.78-0.12,1.43-0.35,1.94
		c-0.23,0.51-0.5,0.93-0.81,1.24c-0.31,0.31-0.61,0.54-0.91,0.68c-0.3,0.14-0.52,0.23-0.66,0.28v0.05c0.25,0.03,0.51,0.11,0.79,0.23
		c0.28,0.12,0.55,0.32,0.79,0.59c0.25,0.27,0.45,0.62,0.61,1.05c0.16,0.43,0.24,0.97,0.24,1.61c0,0.97,0.07,1.84,0.22,2.63
		c0.15,0.79,0.37,1.35,0.68,1.69h-3.08c-0.21-0.35-0.34-0.74-0.38-1.17c-0.04-0.43-0.06-0.84-0.06-1.24c0-0.75-0.05-1.4-0.14-1.94
		c-0.09-0.54-0.26-1-0.51-1.36c-0.25-0.36-0.58-0.63-1-0.79c-0.42-0.17-0.96-0.25-1.62-0.25h-4.23v6.77h-2.88V0.06z M167.23,7.54
		h4.72c0.92,0,1.62-0.22,2.09-0.66c0.48-0.44,0.71-1.09,0.71-1.97c0-0.52-0.08-0.95-0.23-1.28c-0.15-0.33-0.36-0.59-0.63-0.77
		c-0.27-0.18-0.58-0.31-0.92-0.37s-0.7-0.09-1.07-0.09h-4.67V7.54z"/>
	<g>
		<path class="st0" d="M179.92,0.49V0h2.18v0.49h-0.8v2.17h-0.59V0.49H179.92z"/>
		<path class="st0" d="M183.41,0l0.62,1.83h0.01L184.63,0h0.82v2.66h-0.55V0.77h-0.01l-0.65,1.89h-0.45l-0.65-1.87h-0.01v1.87h-0.55
			V0H183.41z"/>
	</g>
</g>
</svg>
