<?xml version="1.0" encoding="utf-8"?>
<!-- Generator: Adobe Illustrator 27.0.1, SVG Export Plug-In . SVG Version: 6.00 Build 0)  -->
<svg version="1.1" id="Calque_1" xmlns="http://www.w3.org/2000/svg" xmlns:xlink="http://www.w3.org/1999/xlink" x="0px" y="0px"
	 viewBox="0 0 226.62 160.53" style="enable-background:new 0 0 226.62 160.53;" xml:space="preserve">
<style type="text/css">
	.st0{fill:#FFFFFF;}
</style>
<g id="Groupe_6">
	<path id="Tracé_31" class="st0" d="M0.01,80.65L0,81.37c16.82,0.93,33.38,4.51,49.09,10.59c14.33,5.39,27.53,13.39,38.95,23.59
		c13.37,12.2,23.29,27.72,28.75,44.98l1.38-0.45c-13.09-40.51-44.53-60.15-68.6-69.49c-12.12-4.64-24.75-7.86-37.62-9.58h214.68
		v-1.45H11.63c12.98-1.71,25.71-4.94,37.93-9.62c24.07-9.34,55.51-28.98,68.6-69.49L116.79,0c-5.46,17.26-15.38,32.78-28.75,44.98
		c-11.41,10.2-24.62,18.2-38.95,23.59C33.38,74.65,16.82,78.22,0,79.16l0.01,0.72V80.65z"/>
</g>
</svg>
